<svg xmlns="http://www.w3.org/2000/svg">
  <symbol id="ui-home" viewBox="0 0 24 24"><path fill="#17211b" d="M1 10 10 2h4l9 8v12H1z"/><path fill="#4d8f38" d="M4 11 12 4l8 7v8h-5v-7H9v7H4z"/><path fill="#86d65c" d="m5 10 7-6 7 6v2L12 6l-7 6z"/><path fill="#d0a56b" d="M10 14h4v6h-4z"/><path fill="#251b13" d="M12 16h2v2h-2z"/></symbol>
  <symbol id="ui-world" viewBox="0 0 24 24"><path fill="#132126" d="M4 2h16v2h2v16h-2v2H4v-2H2V4h2z"/><path fill="#69bfd2" d="M5 4h14v5h2v4h-5v-2h-5v2H5z"/><path fill="#b9ebef" d="M7 5h5v2H7z"/><path fill="#4f9d42" d="M3 12h5V9h5v4h4v-2h4v8h-5v2H8v-2H3z"/><path fill="#83c95a" d="M5 12h5v3h5v-1h4v3H9v2H5z"/><path fill="#6d4932" d="M8 19h8v2H8z"/></symbol>
  <symbol id="ui-players" viewBox="0 0 24 24"><path fill="#18221c" d="M7 2h10v2h2v7h-2v2h4v2h2v7H1v-7h2v-2h4v-2H5V4h2z"/><path fill="#d99a6c" d="M8 4h8v7H8zM3 8h4v4H3zm14 0h4v4h-4z"/><path fill="#f2c092" d="M10 5h4v2h-4z"/><path fill="#2a392f" d="M10 8h2v2h-2zm4 0h2v2h-2z"/><path fill="#4c963f" d="M7 14h10v7H7z"/><path fill="#75cc58" d="M2 16h5v5H2zm15 0h5v5h-5z"/></symbol>
  <symbol id="ui-data" viewBox="0 0 24 24"><path fill="#142126" d="M2 2h20v20H2z"/><path fill="#33433d" d="M4 4h16v16H4z"/><path fill="#69bdd0" d="M5 14h4v5H5zm5-5h4v10h-4zm5-4h4v14h-4z"/><path fill="#bcebf1" d="M6 14h2v2H6zm5-5h2v2h-2zm5-4h2v3h-2z"/></symbol>
  <symbol id="ui-rules" viewBox="0 0 24 24"><path fill="#1a221d" d="M3 1h18v22H3z"/><path fill="#d4bd83" d="M5 3h14v18H5z"/><path fill="#f0dda5" d="M7 5h8v2H7z"/><path fill="#4a3c29" d="M10 10h7v2h-7zm0 5h7v2h-7z"/><path fill="#58a847" d="M7 9h2v4H6v-2h1zm0 5h2v4H6v-2h1z"/></symbol>
  <symbol id="ui-server" viewBox="0 0 24 24"><path fill="#101713" d="M2 2h20v9H2zm0 11h20v9H2z"/><path fill="#526159" d="M4 4h16v5H4zm0 11h16v5H4z"/><path fill="#91a89a" d="M6 5h9v2H6zm0 11h9v2H6z"/><path fill="#70d45a" d="M17 5h2v3h-2zm0 11h2v3h-2z"/><path fill="#24312a" d="M4 9h16v2H4zm0 11h16v2H4z"/></symbol>
  <symbol id="ui-audit" viewBox="0 0 24 24"><path fill="#26332c" d="M3 2h15l3 3v17H3z"/><path fill="#d8c48e" d="M6 5h9v3H6zm0 5h10v2H6zm0 4h7v2H6z"/><path fill="#75c358" d="M14 16h3v2h2v3h-5z"/><path fill="#b7e98e" d="m15 19 2 2 4-5-2-2z"/></symbol>
  <symbol id="ui-refresh" viewBox="0 0 24 24"><path fill="#26332c" d="M3 5h14V2l5 5-5 5V9H7v5H3zM7 15h10v-5h4v9H7v3l-5-5 5-5z"/><path fill="#83cb5b" d="M7 5h10v4H7zm0 10h10v4H7z"/></symbol>
  <symbol id="ui-sun" viewBox="0 0 24 24"><path fill="#5d431a" d="M10 0h4v5h-4zM10 19h4v5h-4zM0 10h5v4H0zm19 0h5v4h-5zM3 3h4v4H3zm14 14h4v4h-4zM17 3h4v4h-4zM3 17h4v4H3z"/><path fill="#f2c94c" d="M6 6h12v12H6z"/><path fill="#ffe986" d="M9 8h6v4H9z"/></symbol>
  <symbol id="ui-moon" viewBox="0 0 24 24"><path fill="#202b3c" d="M3 2h13v3h4v5h2v8h-4v3H7v-3H4v-5H2V6h1z"/><path fill="#a8bad8" d="M6 3h8v3h-3v7h3v4h5v1h-3v3H8v-3H5v-5H3V7h3z"/><path fill="#dce7f3" d="M6 5h4v3H6z"/></symbol>
  <symbol id="ui-rain" viewBox="0 0 24 24"><path fill="#26343a" d="M4 5h4V2h9v3h3v3h3v7H2V8h2z"/><path fill="#a9c6cf" d="M5 7h13v2h3v4H4V9h1z"/><path fill="#55a9d1" d="M5 16h3l-2 6H3zm6 0h3l-2 6H9zm6 0h3l-2 6h-3z"/></symbol>
  <symbol id="ui-thunder" viewBox="0 0 24 24"><path fill="#26343a" d="M4 4h4V1h9v3h4v3h2v7H2V7h2z"/><path fill="#9eb9c2" d="M5 6h13v2h3v4H4V8h1z"/><path fill="#f0c84e" d="M11 12h7l-4 5h3l-8 7 2-6H8z"/></symbol>
  <symbol id="ui-save" viewBox="0 0 24 24"><path fill="#26332c" d="M2 2h18l2 2v18H2z"/><path fill="#67b950" d="M5 4h12v6H5zm1 10h12v6H6z"/><path fill="#b7e98e" d="M8 15h8v2H8z"/><path fill="#1d2822" d="M14 4h3v5h-3z"/></symbol>
  <symbol id="ui-shield" viewBox="0 0 24 24"><path fill="#26332c" d="M3 3h18v10c0 5-4 8-9 10-5-2-9-5-9-10z"/><path fill="#63b94f" d="M6 6h12v7c0 3-2 5-6 7-4-2-6-4-6-7z"/><path fill="#d0efa9" d="m8 12 3 3 6-7v4l-6 7-3-3z"/></symbol>
  <symbol id="ui-warning" viewBox="0 0 24 24"><path fill="#4a3517" d="m12 1 11 21H1z"/><path fill="#e4b94b" d="m12 5 7 14H5z"/><path fill="#332817" d="M10 9h4v6h-4zm0 7h4v3h-4z"/></symbol>
  <symbol id="ui-live" viewBox="0 0 24 24"><path fill="#16351f" d="M8 1h8v3h3v4h3v8h-3v4h-3v3H8v-3H5v-4H2V8h3V4h3z"/><path fill="#4ca83d" d="M8 5h8v3h3v8h-3v3H8v-3H5V8h3z"/><path fill="#a5ed78" d="M10 7h4v10h-4zM7 10h10v4H7z"/></symbol>
  <symbol id="ui-restart" viewBox="0 0 24 24"><path fill="#26332c" d="M12 2a10 10 0 1 1-9 6h5a6 6 0 1 0 4-2v4L4 5l8-5z"/><path fill="#69b952" d="M12 6a6 6 0 1 1-5 3h4a3 3 0 1 0 1 0z"/></symbol>
  <symbol id="ui-activity" viewBox="0 0 24 24"><path fill="#26332c" d="M1 9h6l3-7 5 15 3-8h5v6h-2l-6 8-5-13-2 5H1z"/><path fill="#71c55b" d="M3 11h5l2-4 5 12 3-7h3v2h-2l-4 6-5-11-1 4H3z"/></symbol>
  <symbol id="ui-deaths" viewBox="0 0 24 24"><path fill="#2e2524" d="M3 3h18v15h-4v4H7v-4H3z"/><path fill="#d6d0bd" d="M5 5h14v11h-3v4h-2v-4h-4v4H8v-4H5z"/><path fill="#392f2d" d="M7 9h4v4H7zm6 0h4v4h-4zm-3 5h4v2h-4z"/></symbol>
  <symbol id="ui-rankings" viewBox="0 0 24 24"><path fill="#4a391a" d="M2 4h5v5H2zm15 0h5v5h-5zM7 2h10v8c0 4-2 6-4 7v2h5v3H6v-3h5v-2c-2-1-4-3-4-7z"/><path fill="#e6c251" d="M9 4h6v6c0 3-1 4-3 5-2-1-3-2-3-5z"/></symbol>
  <symbol id="ui-blocks" viewBox="0 0 24 24"><path fill="#26332c" d="M2 6 12 1l10 5v12l-10 5-10-5z"/><path fill="#718078" d="m5 7 7-3 7 3-7 4z"/><path fill="#4d5c54" d="m5 10 7 4v6l-7-4z"/><path fill="#5f7067" d="m19 10-7 4v6l7-4z"/></symbol>
  <symbol id="ui-combat" viewBox="0 0 24 24"><path fill="#382725" d="m2 4 3-3 7 7 7-7 3 3-7 7 4 4-4 4-3-3-3 3-4-4 4-4z"/><path fill="#d47a68" d="m5 4 2-1 12 12-3 2zM19 4l-2-1L5 15l3 2z"/></symbol>
  <symbol id="ui-exploration" viewBox="0 0 24 24"><path fill="#17262b" d="M2 2h20v20H2z"/><path fill="#d3bf82" d="m4 5 5-2 6 2 5-2v16l-5 2-6-2-5 2z"/><path fill="#8a7650" d="M8 5h2v12H8zm6 2h2v12h-2z"/><path fill="#60b9cf" d="m12 6 5 5-5 7-5-7z"/><path fill="#e9f7f8" d="m12 8 2 3-2 4-2-4z"/><path fill="#d85a4b" d="M11 9h2v3h-2z"/></symbol>
  <symbol id="ui-periods" viewBox="0 0 24 24"><path fill="#26332c" d="M2 4h20v18H2z"/><path fill="#6f8376" d="M2 4h20v5H2z"/><path fill="#b5d0bc" d="M5 11h4v3H5zm5 0h4v3h-4zm5 0h4v3h-4zM5 16h4v3H5zm5 0h4v3h-4z"/><path fill="#79c85a" d="M6 1h3v6H6zm9 0h3v6h-3z"/></symbol>
  <symbol id="ui-mining" viewBox="0 0 24 24"><path fill="#3b2b20" d="m3 2 5 1 5 5 7 12-4 2-7-12-5-2z"/><path fill="#9eaaa2" d="M4 2h10v4H9v4H5V7H2z"/><path fill="#cf8d53" d="m10 9 3-2 8 13-4 3z"/></symbol>
  <symbol id="ui-building" viewBox="0 0 24 24"><path fill="#26332c" d="M2 2h9v9H2zm11 0h9v9h-9zM2 13h9v9H2zm11 0h9v9h-9z"/><path fill="#799083" d="M4 4h5v5H4zm11 0h5v5h-5zM4 15h5v5H4zm11 0h5v5h-5z"/></symbol>
  <symbol id="ui-distance" viewBox="0 0 24 24"><path fill="#26332c" d="M2 9h20v6H2z"/><path fill="#70bdd0" d="M4 11h16v2H4z"/><path fill="#b9e4ec" d="m2 12 5-5v4h10V7l5 5-5 5v-4H7v4z"/></symbol>
  <symbol id="ui-sessions" viewBox="0 0 24 24"><path fill="#26332c" d="M2 2h20v20H2z"/><path fill="#d6c68e" d="M10 5h4v8l5 3-2 3-7-4z"/><path fill="#75c358" d="M10 3h4v3h-4z"/></symbol>
  <symbol id="ui-password" viewBox="0 0 24 24"><path fill="#26332c" d="M3 10h18v12H3z"/><path fill="#d7c9a1" d="M5 12h14v8H5z"/><path fill="#3d2c21" d="M10 15h4v5h-4z"/><path fill="#71c55b" d="M6 4h10v8h-3V7H9v5H6z"/><path fill="#b6ec8c" d="M9 5h4v2H9z"/></symbol>
  <symbol id="ui-damage" viewBox="0 0 24 24"><path fill="#3b2524" d="M12 22 2 12V5l4-3 6 5 6-5 4 3v7z"/><path fill="#d6655b" d="M12 18 5 11V6l2-1 5 5 5-5 2 1v5z"/></symbol>
  <symbol id="ui-check" viewBox="0 0 24 24"><path fill="#21442b" d="M2 2h20v20H2z"/><path fill="#8bd36a" d="m5 11 4 4L18 6l3 3L9 20l-7-7z"/></symbol>
  <symbol id="ui-close" viewBox="0 0 24 24"><path fill="#3b2524" d="M2 2h20v20H2z"/><path fill="#df796d" d="m5 8 3-3 4 4 4-4 3 3-4 4 4 4-3 3-4-4-4 4-3-3 4-4z"/></symbol>
  <symbol id="ui-chevron" viewBox="0 0 24 24"><path fill="#26332c" d="M5 2h7l9 10-9 10H5l9-10z"/><path fill="#79c859" d="m9 6 6 6-6 6h3l6-6-6-6z"/></symbol>
  <symbol id="ui-flag-br" viewBox="0 0 24 24"><path fill="#1c281f" d="M1 4h22v16H1z"/><path fill="#239447" d="M2 5h20v14H2z"/><path fill="#f6d44a" d="m12 7 8 5-8 5-8-5z"/><path fill="#315a9b" d="M8 9h8v6H8z"/><path fill="#e8eee8" d="M8 11h8v2H8z"/></symbol>
  <symbol id="ui-flag-us" viewBox="0 0 24 24"><path fill="#1c281f" d="M1 4h22v16H1z"/><path fill="#f2eee3" d="M2 5h20v14H2z"/><path fill="#bd3b47" d="M2 5h20v2H2zm0 4h20v2H2zm0 4h20v2H2zm0 4h20v2H2z"/><path fill="#355796" d="M2 5h9v8H2z"/><path fill="#f2eee3" d="M4 7h2v2H4zm4 0h2v2H8zm-2 3h2v2H6z"/></symbol>
  <symbol id="ui-flag-es" viewBox="0 0 24 24"><path fill="#1c281f" d="M1 4h22v16H1z"/><path fill="#aa2835" d="M2 5h20v14H2z"/><path fill="#f4cb45" d="M2 8h20v8H2z"/><path fill="#b33b35" d="M7 10h3v4H7z"/><path fill="#f7e8b2" d="M8 11h1v2H8z"/></symbol>
  <symbol id="ui-eye" viewBox="0 0 24 24"><path fill="#26332c" d="M1 9 6 4h12l5 5v6l-5 5H6l-5-5z"/><path fill="#9cc58a" d="m3 10 4-4h10l4 4v4l-4 4H7l-4-4z"/><path fill="#dcebd4" d="M8 7h8v10H8z"/><path fill="#315d45" d="M10 9h5v6h-5z"/><path fill="#101a14" d="M12 10h3v4h-3z"/><path fill="#fff" d="M10 8h2v2h-2z"/></symbol>
  <symbol id="ui-logout" viewBox="0 0 24 24"><path fill="#26332c" d="M2 2h12v5h-3V5H5v14h6v-2h3v5H2z"/><path fill="#d7c9a1" d="M5 5h6v14H5z"/><path fill="#3d2c21" d="M7 7h4v10H7z"/><path fill="#d96e61" d="M13 7h5V4l5 8-5 8v-3h-5v-3h7v-4h-7z"/><path fill="#f4a093" d="M16 9h3v2h-3z"/></symbol>
  <symbol id="ui-rank-1" viewBox="0 0 24 24"><path fill="#3b2b10" d="M5 1h14v3h3v12h-3v3h-4v4H9v-4H5v-3H2V4h3z"/><path fill="#d59d25" d="M6 4h12v2h2v8h-2v2H6v-2H4V6h2z"/><path fill="#ffe17a" d="M8 6h8v8H8z"/><path fill="#6b4a12" d="M11 7h3v6h-2V9h-2z"/><path fill="#a96f19" d="M9 18h6v3H9z"/></symbol>
  <symbol id="ui-rank-2" viewBox="0 0 24 24"><path fill="#29302f" d="M5 1h14v3h3v12h-3v3h-4v4H9v-4H5v-3H2V4h3z"/><path fill="#8f9b98" d="M6 4h12v2h2v8h-2v2H6v-2H4V6h2z"/><path fill="#dce4df" d="M8 6h8v8H8z"/><path fill="#48514f" d="M10 7h5v4h-3v1h3v2h-6v-4h3V9h-2z"/><path fill="#66716e" d="M9 18h6v3H9z"/></symbol>
  <symbol id="ui-rank-3" viewBox="0 0 24 24"><path fill="#39251a" d="M5 1h14v3h3v12h-3v3h-4v4H9v-4H5v-3H2V4h3z"/><path fill="#a76037" d="M6 4h12v2h2v8h-2v2H6v-2H4V6h2z"/><path fill="#e4a06d" d="M8 6h8v8H8z"/><path fill="#63351f" d="M10 7h5v7h-5v-2h3v-1h-2V9h2v-1h-3z"/><path fill="#774326" d="M9 18h6v3H9z"/></symbol>
  <symbol id="ui-telemetry" viewBox="0 0 24 24"><path fill="#142126" d="M2 4h5V1h3v22H7v-3H2zM14 1h3v5h5v14h-5v3h-3z"/><path fill="#55afc5" d="M4 7h4v10H4zm12 2h4v8h-4z"/><path fill="#a8e3eb" d="M5 9h3v3H5zm11 2h4v3h-4z"/><path fill="#70cf59" d="M10 10h4v4h-4z"/></symbol>
  <symbol id="ui-export" viewBox="0 0 24 24"><path fill="#18221d" d="M3 2h13l5 5v15H3z"/><path fill="#d3c18d" d="M5 4h9v5h5v11H5z"/><path fill="#756749" d="M14 4v5h5z"/><path fill="#4d9f42" d="M10 9h4v5h4l-6 6-6-6h4z"/><path fill="#a5e67b" d="M11 10h2v6h-2z"/></symbol>
  <symbol id="ui-settings" viewBox="0 0 24 24"><path fill="#17211c" d="M9 1h6l1 4 4-1 3 5-3 3 3 3-3 5-4-1-1 4H9l-1-4-4 1-3-5 3-3-3-3 3-5 4 1z"/><path fill="#718078" d="M9 5h6l1 3 3 1-2 3 2 3-3 1-1 3H9l-1-3-3-1 2-3-2-3 3-1z"/><path fill="#b7c7bc" d="M9 9h6v6H9z"/><path fill="#314038" d="M11 11h2v2h-2z"/></symbol>
  <symbol id="ui-history" viewBox="0 0 24 24"><path fill="#18221d" d="M4 2h16v20H4z"/><path fill="#d4c28c" d="M6 4h12v16H6z"/><path fill="#6f6043" d="M8 7h8v2H8zm0 4h8v2H8zm0 4h5v2H8z"/><path fill="#59ae48" d="M15 14h5v7h-7v-5z"/><path fill="#b4eb8d" d="M16 15h2v4h-4v-2h2z"/></symbol>
</svg>
